<svg width="361" height="269" viewBox="0 0 361 269" fill="none" xmlns="http://www.w3.org/2000/svg">
<g clip-path="url(#clip0_48_898)">
<path d="M113.611 79.91C102.085 99.6844 132.299 138.761 181.099 167.177C229.9 195.608 278.801 202.615 290.344 182.841C301.87 163.067 271.656 123.99 222.856 95.5746C174.039 67.1595 125.137 60.1357 113.611 79.91Z" stroke="#EEECF0" stroke-width="6" stroke-miterlimit="10"/>
<path d="M198.236 29.2277C175.353 30.0699 158.485 76.4739 160.541 132.9C162.597 189.326 182.818 234.382 205.701 233.54C228.585 232.698 245.453 186.294 243.397 129.868C241.341 73.442 221.12 28.3855 198.236 29.2277Z" stroke="#F5F3F7" stroke-width="6" stroke-miterlimit="10"/>
<path d="M287.631 75.5139C275.111 56.3459 226.63 65.8288 179.33 96.6694C132.012 127.527 103.821 168.086 116.324 187.254C128.827 206.422 177.325 196.939 224.625 166.082C271.926 135.224 300.118 94.6818 287.614 75.5139H287.631Z" stroke="white" stroke-width="6" stroke-miterlimit="10"/>
<path d="M183.525 131.384C183.525 141.574 191.782 149.828 201.977 149.828C212.172 149.828 220.429 141.574 220.429 131.384C220.429 121.194 212.172 112.94 201.977 112.94C191.782 112.94 183.525 121.194 183.525 131.384Z" fill="url(#paint0_linear_48_898)"/>
<path d="M201.978 149.828C212.172 149.828 220.429 141.574 220.429 131.384C220.429 121.194 212.172 112.94 201.978 112.94V149.828Z" fill="black" fill-opacity="0.2"/>
<path d="M105 73.4757C105 79.2531 109.685 83.9356 115.464 83.9356C121.244 83.9356 125.912 79.2531 125.912 73.4757C125.912 67.6984 121.227 63.0159 115.464 63.0159C109.701 63.0159 105 67.6984 105 73.4757Z" fill="url(#paint1_linear_48_898)"/>
<path d="M275.734 73.4757C275.734 79.2531 280.418 83.9356 286.181 83.9356C291.945 83.9356 296.646 79.2531 296.646 73.4757C296.646 67.6984 291.961 63.0159 286.181 63.0159C280.402 63.0159 275.734 67.6984 275.734 73.4757Z" fill="url(#paint2_linear_48_898)"/>
<path d="M192.743 233.557C192.743 239.334 197.428 244.017 203.208 244.017C208.988 244.017 213.672 239.334 213.672 233.557C213.672 227.78 208.988 223.097 203.208 223.097C197.428 223.097 192.743 227.78 192.743 233.557Z" fill="url(#paint3_linear_48_898)"/>
<path d="M203.19 244C208.97 244 213.655 239.318 213.655 233.54C213.655 227.763 208.97 223.08 203.19 223.08V243.983V244Z" fill="black" fill-opacity="0.2"/>
<path d="M286.182 83.9187C291.962 83.9187 296.646 79.2362 296.646 73.4589C296.646 67.6815 291.962 62.999 286.182 62.999V83.9019V83.9187Z" fill="black" fill-opacity="0.2"/>
<path d="M115.464 83.9187C121.244 83.9187 125.912 79.2362 125.912 73.4589C125.912 67.6815 121.227 62.999 115.464 62.999V83.9019V83.9187Z" fill="black" fill-opacity="0.2"/>
</g>
<defs>
<linearGradient id="paint0_linear_48_898" x1="201.977" y1="112.94" x2="201.977" y2="149.828" gradientUnits="userSpaceOnUse">
<stop stop-color="#8C25F4"/>
<stop offset="1" stop-color="#F425F4"/>
</linearGradient>
<linearGradient id="paint1_linear_48_898" x1="115.456" y1="63.0159" x2="115.456" y2="83.9356" gradientUnits="userSpaceOnUse">
<stop stop-color="#8C25F4"/>
<stop offset="1" stop-color="#F425F4"/>
</linearGradient>
<linearGradient id="paint2_linear_48_898" x1="286.19" y1="63.0159" x2="286.19" y2="83.9356" gradientUnits="userSpaceOnUse">
<stop stop-color="#8C25F4"/>
<stop offset="1" stop-color="#F425F4"/>
</linearGradient>
<linearGradient id="paint3_linear_48_898" x1="203.208" y1="223.097" x2="203.208" y2="244.017" gradientUnits="userSpaceOnUse">
<stop stop-color="#8C25F4"/>
<stop offset="1" stop-color="#F425F4"/>
</linearGradient>
<clipPath id="clip0_48_898">
<rect width="192" height="219" fill="white" transform="translate(105 25)"/>
</clipPath>
</defs>
</svg>
