<svg width="36" height="36" viewBox="0 0 36 36" fill="none" xmlns="http://www.w3.org/2000/svg">
<path d="M17.9998 32.5834C26.054 32.5834 32.5832 26.0542 32.5832 18.0001C32.5832 9.94593 26.054 3.41675 17.9998 3.41675C9.94568 3.41675 3.4165 9.94593 3.4165 18.0001C3.4165 26.0542 9.94568 32.5834 17.9998 32.5834Z" stroke="url(#paint0_linear_88_639)" stroke-width="2" stroke-linecap="round" stroke-linejoin="round"/>
<path d="M12.1667 4.875H13.625C10.7813 13.3917 10.7813 22.6083 13.625 31.125H12.1667" stroke="url(#paint1_linear_88_639)" stroke-width="2" stroke-linecap="round" stroke-linejoin="round"/>
<path d="M22.375 4.875C25.2187 13.3917 25.2187 22.6083 22.375 31.125" stroke="url(#paint2_linear_88_639)" stroke-width="2" stroke-linecap="round" stroke-linejoin="round"/>
<path d="M4.875 23.8333V22.375C13.3917 25.2187 22.6083 25.2187 31.125 22.375V23.8333" stroke="url(#paint3_linear_88_639)" stroke-width="2" stroke-linecap="round" stroke-linejoin="round"/>
<path d="M4.875 13.625C13.3917 10.7813 22.6083 10.7813 31.125 13.625" stroke="url(#paint4_linear_88_639)" stroke-width="2" stroke-linecap="round" stroke-linejoin="round"/>
<defs>
<linearGradient id="paint0_linear_88_639" x1="17.9998" y1="3.41675" x2="17.9998" y2="32.5834" gradientUnits="userSpaceOnUse">
<stop stop-color="#8C25F4"/>
<stop offset="1" stop-color="#F425F4"/>
</linearGradient>
<linearGradient id="paint1_linear_88_639" x1="12.5586" y1="4.875" x2="12.5586" y2="31.125" gradientUnits="userSpaceOnUse">
<stop stop-color="#8C25F4"/>
<stop offset="1" stop-color="#F425F4"/>
</linearGradient>
<linearGradient id="paint2_linear_88_639" x1="23.4414" y1="4.875" x2="23.4414" y2="31.125" gradientUnits="userSpaceOnUse">
<stop stop-color="#8C25F4"/>
<stop offset="1" stop-color="#F425F4"/>
</linearGradient>
<linearGradient id="paint3_linear_88_639" x1="18" y1="22.375" x2="18" y2="24.5078" gradientUnits="userSpaceOnUse">
<stop stop-color="#8C25F4"/>
<stop offset="1" stop-color="#F425F4"/>
</linearGradient>
<linearGradient id="paint4_linear_88_639" x1="18" y1="11.4922" x2="18" y2="13.625" gradientUnits="userSpaceOnUse">
<stop stop-color="#8C25F4"/>
<stop offset="1" stop-color="#F425F4"/>
</linearGradient>
</defs>
</svg>
