<svg width="36" height="37" viewBox="0 0 36 37" fill="none" xmlns="http://www.w3.org/2000/svg">
<path d="M19.4997 12.6181C20.7319 11.3859 22.7296 11.3859 23.9617 12.6181C25.1938 13.8502 25.1938 15.8479 23.9617 17.08C22.7296 18.3122 19.8068 19.2372 18.5747 18.0051C17.3425 16.773 18.2676 13.8502 19.4997 12.6181Z" fill="#8C25F4"/>
<mask id="mask0_929_303" style="mask-type:alpha" maskUnits="userSpaceOnUse" x="17" y="11" width="8" height="8">
<path d="M19.4997 12.6183C20.7319 11.3862 22.7296 11.3862 23.9617 12.6183C25.1938 13.8505 25.1938 15.8482 23.9617 17.0803C22.7296 18.3124 19.8068 19.2375 18.5747 18.0053C17.3425 16.7732 18.2676 13.8505 19.4997 12.6183Z" fill="#F425F4"/>
</mask>
<g mask="url(#mask0_929_303)">
<path d="M17.5925 12.2898C18.5165 11.3658 20.7648 12.1161 22.6143 13.9656C24.4638 15.8151 25.2141 18.0635 24.2902 18.9874C23.3662 19.9113 20.4243 19.8547 18.5748 18.0052C16.7253 16.1557 16.6686 13.2137 17.5925 12.2898Z" fill="url(#paint0_linear_929_303)" fill-opacity="0.32"/>
<path d="M25.1165 10.7881C24.8249 12.829 22.7806 13.472 20.4203 13.1347C18.06 12.7975 16.2835 11.5661 16.5692 9.56687C16.8548 7.5676 18.9051 6.88299 21.2654 7.22022C23.6256 7.55744 25.4081 8.74715 25.1165 10.7881Z" fill="url(#paint1_linear_929_303)" fill-opacity="0.32" style="mix-blend-mode:plus-lighter"/>
</g>
<path d="M24.1438 21.7394C22.5514 23.3318 19.7312 21.9414 17.1343 19.3445C14.5373 16.7475 13.1794 13.8948 14.7393 12.3349C16.2992 10.775 19.1519 12.1329 21.7489 14.7298C24.3459 17.3268 25.7362 20.147 24.1438 21.7394Z" fill="#F425F4"/>
<mask id="mask1_929_303" style="mask-type:alpha" maskUnits="userSpaceOnUse" x="14" y="11" width="11" height="12">
<path d="M24.1438 21.7394C22.5514 23.3318 19.7312 21.9414 17.1343 19.3445C14.5373 16.7475 13.1794 13.8948 14.7393 12.3349C16.2992 10.775 19.1519 12.1329 21.7489 14.7298C24.3459 17.3268 25.7362 20.147 24.1438 21.7394Z" fill="#F425F4"/>
</mask>
<g mask="url(#mask1_929_303)">
<path d="M22.9089 22.9743C21.4511 24.4322 18.6913 22.9814 16.0943 20.3844C13.4973 17.7874 12.0763 14.9979 13.5044 13.5698C14.9324 12.1418 17.722 13.5628 20.3189 16.1598C22.9159 18.7567 24.3667 21.5165 22.9089 22.9743Z" fill="url(#paint2_linear_929_303)" fill-opacity="0.32"/>
<path d="M21.2339 10.4575C20.9423 12.4984 18.898 13.1414 16.5378 12.8042C14.1775 12.4669 12.401 11.2356 12.6866 9.23631C12.9723 7.23704 15.0225 6.55243 17.3828 6.88965C19.7431 7.22688 21.5255 8.41659 21.2339 10.4575Z" fill="url(#paint3_linear_929_303)" fill-opacity="0.32" style="mix-blend-mode:plus-lighter"/>
</g>
<path d="M21.2818 24.6598C19.6894 26.2522 16.8692 24.8619 14.2722 22.2649C11.6752 19.6679 10.3174 16.8152 11.8773 15.2553C13.4371 13.6954 16.2898 15.0533 18.8868 17.6502C21.4838 20.2472 22.8741 23.0674 21.2818 24.6598Z" fill="#8C25F4"/>
<mask id="mask2_929_303" style="mask-type:alpha" maskUnits="userSpaceOnUse" x="11" y="14" width="11" height="12">
<path d="M21.2818 24.6598C19.6894 26.2522 16.8692 24.8619 14.2722 22.2649C11.6752 19.6679 10.3174 16.8152 11.8773 15.2553C13.4371 13.6954 16.2898 15.0533 18.8868 17.6502C21.4838 20.2472 22.8741 23.0674 21.2818 24.6598Z" fill="#F425F4"/>
</mask>
<g mask="url(#mask2_929_303)">
<path d="M20.0468 25.8948C18.589 27.3526 15.8292 25.9018 13.2322 23.3048C10.6352 20.7079 9.21425 17.9183 10.6423 16.4903C12.0704 15.0622 14.8599 16.4832 17.4569 19.0802C20.0539 21.6772 21.5046 24.437 20.0468 25.8948Z" fill="url(#paint4_linear_929_303)" fill-opacity="0.32"/>
<path d="M18.3426 13.3489C18.051 15.3898 16.0067 16.0327 13.6464 15.6955C11.2861 15.3583 9.50961 14.1269 9.79526 12.1277C10.0809 10.1284 12.1312 9.44379 14.4914 9.78101C16.8517 10.1182 18.6342 11.3079 18.3426 13.3489Z" fill="url(#paint5_linear_929_303)" fill-opacity="0.32" style="mix-blend-mode:plus-lighter"/>
</g>
<mask id="mask3_929_303" style="mask-type:alpha" maskUnits="userSpaceOnUse" x="12" y="18" width="7" height="7">
<path d="M12.2648 18.2865C12.9845 17.5668 14.6375 18.5736 16.2781 20.2141C17.9186 21.8547 18.9107 23.5224 18.2057 24.2274C17.5007 24.9324 15.8329 23.9403 14.1924 22.2998C12.5518 20.6593 11.5451 19.0062 12.2648 18.2865Z" fill="#F425F4"/>
</mask>
<g mask="url(#mask3_929_303)">
<path d="M12.8229 17.7284C13.4818 17.0695 15.1075 18.1036 16.7481 19.7441C18.3886 21.3847 19.4092 23.0239 18.7638 23.6693C18.1184 24.3147 16.4792 23.2941 14.8386 21.6536C13.1981 20.013 12.164 18.3873 12.8229 17.7284Z" fill="url(#paint6_linear_929_303)" fill-opacity="0.6"/>
</g>
<mask id="mask4_929_303" style="mask-type:alpha" maskUnits="userSpaceOnUse" x="11" y="18" width="8" height="8">
<path d="M12.2753 18.2865C12.995 17.5668 14.648 18.5736 16.2885 20.2141C17.9291 21.8547 18.9212 23.5224 18.2162 24.2274C17.5111 24.9325 13.4098 26.4843 11.7693 24.8437C10.1287 23.2032 11.5555 19.0062 12.2753 18.2865Z" fill="#F425F4"/>
</mask>
<g mask="url(#mask4_929_303)">
<path d="M16.6036 24.4486C15.3714 25.6807 13.3737 25.6807 12.1416 24.4486C10.9094 23.2164 10.9094 21.2187 12.1416 19.9866C13.3737 18.7545 16.2965 17.8294 17.5286 19.0616C18.7607 20.2937 17.8357 23.2164 16.6036 24.4486Z" fill="#F425F4"/>
</g>
<mask id="mask5_929_303" style="mask-type:alpha" maskUnits="userSpaceOnUse" x="11" y="18" width="8" height="8">
<mask id="mask6_929_303" style="mask-type:alpha" maskUnits="userSpaceOnUse" x="11" y="18" width="8" height="8">
<path d="M12.2753 18.2865C12.995 17.5668 14.648 18.5736 16.2885 20.2141C17.9291 21.8547 18.9212 23.5224 18.2162 24.2274C17.5111 24.9325 13.4098 26.4843 11.7693 24.8437C10.1287 23.2032 11.5555 19.0062 12.2753 18.2865Z" fill="#F425F4"/>
</mask>
<g mask="url(#mask6_929_303)">
<path d="M16.6036 24.4486C15.3714 25.6807 13.3737 25.6807 12.1416 24.4486C10.9094 23.2164 10.9094 21.2187 12.1416 19.9866C13.3737 18.7545 16.2965 17.8294 17.5286 19.0616C18.7607 20.2937 17.8357 23.2164 16.6036 24.4486Z" fill="#F425F4"/>
</g>
</mask>
<g mask="url(#mask5_929_303)">
<path d="M17.7893 24.8435C16.2693 20.9774 13.1081 19.1297 11.7175 18.6891L15.4349 17.6152L18.7806 21.2913L17.7893 24.8435Z" fill="url(#paint7_linear_929_303)" fill-opacity="0.32"/>
</g>
<path d="M11.8143 24.2963C10.6052 25.7711 8.77029 26.711 6.71619 26.711C5.40218 26.711 4.17773 26.326 3.14891 25.6636C1.72884 24.7473 0.681164 23.2997 0.28755 21.6005C0.28755 21.5982 0.286372 21.5946 0.285193 21.5911C0.225091 21.2605 0.175594 20.9275 0.134347 20.591C0.0459609 19.8695 0 19.1339 0 18.3888C0 17.1171 0.13199 15.8773 0.384186 14.6812C0.308763 15.1405 0.269873 15.6128 0.269873 16.0934C0.269873 16.7334 0.339404 17.3568 0.471394 17.9566C0.79312 19.4373 1.49196 20.7763 2.46186 21.8686C4.05045 23.6575 6.01027 24.9421 8.9447 24.7851C9.94877 24.732 10.9163 24.6139 11.8143 24.2963Z" fill="#4B3A5A"/>
<path d="M30.9717 6.25277C27.9889 4.01165 24.2849 2.68445 20.2698 2.68445C15.5901 2.68445 11.331 4.48868 8.14677 7.43945C6.12095 9.31808 4.53118 11.6607 3.54479 14.2998C2.8153 16.2516 2.4158 18.3652 2.4158 20.5733C2.4158 21.009 2.43112 21.4412 2.46176 21.8686C1.49186 20.7764 0.793023 19.4374 0.471296 17.9567C0.339306 17.3568 0.269775 16.7334 0.269775 16.0934C0.269775 15.6128 0.308665 15.1405 0.384088 14.6812C0.488974 14.1829 0.613893 13.6929 0.760025 13.2111C2.97558 5.85603 9.79076 0.5 17.854 0.5C23.0405 0.5 27.7096 2.71515 30.9717 6.25277Z" fill="#FF72FF"/>
<path d="M24.1857 12.7037C25.3948 11.2289 27.2297 10.289 29.2838 10.289C30.5978 10.289 31.8223 10.674 32.8511 11.3364C34.2712 12.2527 35.3188 13.7003 35.7124 15.3995C35.7124 15.4018 35.7136 15.4054 35.7148 15.4089C35.7749 15.7395 35.8244 16.0725 35.8657 16.409C35.954 17.1305 36 17.8661 36 18.6112C36 19.8829 35.868 21.1227 35.6158 22.3188C35.6912 21.8595 35.7301 21.3872 35.7301 20.9066C35.7301 20.2666 35.6606 19.6432 35.5286 19.0434C35.2069 17.5627 34.508 16.2237 33.5381 15.1314C31.9495 13.3425 29.9897 12.0579 27.0553 12.2149C26.0512 12.268 25.0837 12.3861 24.1857 12.7037Z" fill="#4B3A5A"/>
<path d="M5.02833 30.7472C8.01108 32.9884 11.7151 34.3156 15.7302 34.3156C20.4099 34.3156 24.669 32.5113 27.8532 29.5605C29.879 27.6819 31.4688 25.3393 32.4552 22.7002C33.1847 20.7484 33.5842 18.6348 33.5842 16.4267C33.5842 15.991 33.5689 15.5588 33.5382 15.1314C34.5081 16.2236 35.207 17.5626 35.5287 19.0433C35.6607 19.6432 35.7302 20.2666 35.7302 20.9066C35.7302 21.3872 35.6913 21.8595 35.6159 22.3188C35.511 22.8171 35.3861 23.3071 35.24 23.7889C33.0244 31.144 26.2092 36.5 18.146 36.5C12.9595 36.5 8.29038 34.2849 5.02833 30.7472Z" fill="#FF72FF"/>
<defs>
<linearGradient id="paint0_linear_929_303" x1="18.5748" y1="18.0052" x2="22.6143" y2="13.9656" gradientUnits="userSpaceOnUse">
<stop offset="0.478" stop-color="#220052"/>
<stop offset="1" stop-color="#18141F" stop-opacity="0"/>
</linearGradient>
<linearGradient id="paint1_linear_929_303" x1="23.1177" y1="14.1046" x2="20.0612" y2="11.6676" gradientUnits="userSpaceOnUse">
<stop stop-color="white" stop-opacity="0"/>
<stop offset="1" stop-color="white"/>
</linearGradient>
<linearGradient id="paint2_linear_929_303" x1="16.0943" y1="20.3844" x2="20.3189" y2="16.1598" gradientUnits="userSpaceOnUse">
<stop offset="0.478" stop-color="#220052"/>
<stop offset="1" stop-color="#18141F" stop-opacity="0"/>
</linearGradient>
<linearGradient id="paint3_linear_929_303" x1="17.583" y1="14.2283" x2="16.1787" y2="11.6262" gradientUnits="userSpaceOnUse">
<stop stop-color="white" stop-opacity="0"/>
<stop offset="1" stop-color="white"/>
</linearGradient>
<linearGradient id="paint4_linear_929_303" x1="13.2322" y1="23.3048" x2="17.4569" y2="19.0802" gradientUnits="userSpaceOnUse">
<stop offset="0.478" stop-color="#220052"/>
<stop offset="1" stop-color="#18141F" stop-opacity="0"/>
</linearGradient>
<linearGradient id="paint5_linear_929_303" x1="14.5264" y1="16.1284" x2="14.0308" y2="14.3523" gradientUnits="userSpaceOnUse">
<stop stop-color="white" stop-opacity="0"/>
<stop offset="1" stop-color="white"/>
</linearGradient>
<linearGradient id="paint6_linear_929_303" x1="16.7481" y1="19.7441" x2="14.8386" y2="21.6536" gradientUnits="userSpaceOnUse">
<stop offset="0.00799988" stop-color="#220052"/>
<stop offset="0.478" stop-color="#220052"/>
<stop offset="1" stop-color="#18141F" stop-opacity="0"/>
</linearGradient>
<linearGradient id="paint7_linear_929_303" x1="18.8219" y1="20.3" x2="12.3784" y2="20.3413" gradientUnits="userSpaceOnUse">
<stop offset="0.274104" stop-color="#220052"/>
<stop offset="1" stop-color="#18141F" stop-opacity="0"/>
</linearGradient>
</defs>
</svg>
