<svg width="22" height="22" viewBox="0 0 22 22" fill="none" xmlns="http://www.w3.org/2000/svg">
<path d="M3.9563 10.1249H16.3288L15.1913 8.99617C15.0265 8.8314 14.934 8.60793 14.934 8.37492C14.934 8.1419 15.0265 7.91843 15.1913 7.75367C15.3561 7.5889 15.5795 7.49634 15.8126 7.49634C16.0456 7.49634 16.269 7.5889 16.4338 7.75367L19.0588 10.3787C19.1408 10.46 19.2059 10.5568 19.2503 10.6634C19.2948 10.77 19.3176 10.8844 19.3176 10.9999C19.3176 11.1154 19.2948 11.2298 19.2503 11.3364C19.2059 11.443 19.1408 11.5398 19.0588 11.6212L16.4338 14.2462C16.3525 14.3282 16.2557 14.3933 16.1491 14.4377C16.0424 14.4821 15.9281 14.505 15.8126 14.505C15.697 14.505 15.5827 14.4821 15.476 14.4377C15.3694 14.3933 15.2726 14.3282 15.1913 14.2462C15.1093 14.1648 15.0442 14.068 14.9998 13.9614C14.9554 13.8548 14.9325 13.7404 14.9325 13.6249C14.9325 13.5094 14.9554 13.395 14.9998 13.2884C15.0442 13.1818 15.1093 13.085 15.1913 13.0037L16.3288 11.8749H3.9563C3.73927 11.8643 3.53394 11.7733 3.38029 11.6197C3.22664 11.466 3.13566 11.2607 3.12505 11.0437V10.9999C3.12477 10.7752 3.21093 10.5591 3.36568 10.3962C3.52043 10.2333 3.7319 10.1362 3.9563 10.1249Z" fill="#ABA7AF"/>
<path d="M3.63299 15.375H12.242C12.5226 15.375 12.75 15.7472 12.75 16.2063V16.2937C12.75 16.7528 12.5226 17.125 12.242 17.125H3.63299C3.35243 17.125 3.125 16.7528 3.125 16.2937V16.2063C3.125 15.7472 3.35243 15.375 3.63299 15.375Z" fill="#ABA7AF"/>
<path d="M3.63299 4.875H12.242C12.5226 4.875 12.75 5.24716 12.75 5.70625V5.79375C12.75 6.25284 12.5226 6.625 12.242 6.625H3.63299C3.35243 6.625 3.125 6.25284 3.125 5.79375V5.70625C3.125 5.24716 3.35243 4.875 3.63299 4.875Z" fill="#ABA7AF"/>
</svg>
