<svg width="22" height="22" viewBox="0 0 22 22" fill="none" xmlns="http://www.w3.org/2000/svg">
<path d="M18.0438 10.1249H5.67126L6.80876 8.99617C6.97352 8.8314 7.06609 8.60793 7.06609 8.37492C7.06609 8.1419 6.97352 7.91843 6.80876 7.75367C6.64399 7.5889 6.42052 7.49634 6.18751 7.49634C5.95449 7.49634 5.73102 7.5889 5.56626 7.75367L2.94126 10.3787C2.85925 10.46 2.79415 10.5568 2.74973 10.6634C2.70531 10.77 2.68243 10.8844 2.68243 10.9999C2.68243 11.1154 2.70531 11.2298 2.74973 11.3364C2.79415 11.443 2.85925 11.5398 2.94126 11.6212L5.56626 14.2462C5.6476 14.3282 5.74438 14.3933 5.851 14.4377C5.95763 14.4821 6.072 14.505 6.18751 14.505C6.30302 14.505 6.41739 14.4821 6.52401 14.4377C6.63064 14.3933 6.72742 14.3282 6.80876 14.2462C6.89077 14.1648 6.95586 14.068 7.00029 13.9614C7.04471 13.8548 7.06758 13.7404 7.06758 13.6249C7.06758 13.5094 7.04471 13.395 7.00029 13.2884C6.95586 13.1818 6.89077 13.085 6.80876 13.0037L5.67126 11.8749H18.0438C18.2608 11.8643 18.4661 11.7733 18.6198 11.6197C18.7734 11.466 18.8644 11.2607 18.875 11.0437V10.9999C18.8753 10.7752 18.7891 10.5591 18.6344 10.3962C18.4796 10.2333 18.2682 10.1362 18.0438 10.1249Z" fill="#ABA7AF"/>
<path d="M18.367 15.375H9.75799C9.47743 15.375 9.25 15.7472 9.25 16.2063V16.2937C9.25 16.7528 9.47743 17.125 9.75799 17.125H18.367C18.6476 17.125 18.875 16.7528 18.875 16.2937V16.2063C18.875 15.7472 18.6476 15.375 18.367 15.375Z" fill="#ABA7AF"/>
<path d="M18.367 4.875H9.75799C9.47743 4.875 9.25 5.24716 9.25 5.70625V5.79375C9.25 6.25284 9.47743 6.625 9.75799 6.625H18.367C18.6476 6.625 18.875 6.25284 18.875 5.79375V5.70625C18.875 5.24716 18.6476 4.875 18.367 4.875Z" fill="#ABA7AF"/>
</svg>
