<svg width="16" height="17" viewBox="0 0 16 17" fill="none" xmlns="http://www.w3.org/2000/svg">
<path d="M13.84 2.96999L13.7 2.89999L12.34 2.11999L9.52 0.48999C8.66 -0.0100098 7.34 -0.0100098 6.48 0.48999L3.66 2.10999L2.3 2.90999L2.12 2.99999C0.37 4.17999 0.25 4.39999 0.25 6.28999V10.81C0.25 12.7 0.37 12.92 2.16 14.13L6.48 16.62C6.91 16.88 7.45 16.99 8 16.99C8.54 16.99 9.09 16.87 9.52 16.62L13.88 14.1C15.64 12.92 15.75 12.71 15.75 10.81V6.28999C15.75 4.39999 15.63 4.17999 13.84 2.96999ZM10.79 8.49999L10.18 9.24999C10.08 9.35999 10.01 9.56999 10.02 9.71999L10.08 10.68C10.12 11.27 9.7 11.57 9.15 11.36L8.26 11C8.12 10.95 7.89 10.95 7.75 11L6.86 11.35C6.31 11.57 5.89 11.26 5.93 10.67L5.99 9.70999C6 9.55999 5.93 9.34999 5.83 9.23999L5.21 8.49999C4.83 8.04999 5 7.54999 5.57 7.39999L6.5 7.15999C6.65 7.11999 6.82 6.97999 6.9 6.85999L7.42 6.05999C7.74 5.55999 8.25 5.55999 8.58 6.05999L9.1 6.85999C9.18 6.98999 9.36 7.11999 9.5 7.15999L10.43 7.39999C11 7.54999 11.17 8.04999 10.79 8.49999Z" fill="#E5E0EB"/>
</svg>
