<svg width="40" height="36" viewBox="0 0 40 36" fill="none" xmlns="http://www.w3.org/2000/svg">
<path d="M29.1281 8.34193C28.3037 6.18038 27.0127 4.49389 25.2548 3.28246C23.497 2.07104 21.3331 1.46533 18.7631 1.46533C15.4414 1.46533 12.6956 2.5283 10.5256 4.65422C8.3556 6.78015 7.1615 9.45834 6.94329 12.6888C5.31883 13.2114 3.98532 14.2031 2.94275 15.6639C1.90019 17.1247 1.37891 18.7697 1.37891 20.5987C1.37891 22.8315 2.15477 24.7674 3.70649 26.4064C5.25822 28.0454 7.10089 28.8648 9.23451 28.8648H10.2528C10.4225 28.8648 10.5801 28.8351 10.7256 28.7758C10.8711 28.7164 10.9923 28.6332 11.0893 28.5264C11.1863 28.4195 11.2651 28.2948 11.3257 28.1522C11.3863 28.0097 11.4166 27.8672 11.4166 27.7247C11.4166 27.4159 11.3075 27.1487 11.0893 26.923C10.8711 26.6973 10.5923 26.5845 10.2528 26.5845H9.23451C7.73128 26.5845 6.42807 25.9907 5.32489 24.803C4.22171 23.6153 3.67012 22.2139 3.67012 20.5987C3.67012 19.1735 4.11867 17.8908 5.01576 16.7506C5.91285 15.6105 7.00391 14.9335 8.28893 14.7197L9.34361 14.5416L9.27088 13.4727H9.23451C9.23451 10.646 10.1074 8.31818 11.853 6.48917C13.5987 4.66016 15.9021 3.74566 18.7631 3.74566C23.103 3.74566 25.9034 5.75281 27.1642 9.76713L27.4188 10.551L28.2553 10.5866C29.6857 10.6104 31.0193 10.9667 32.2558 11.6555C33.4923 12.3444 34.4864 13.2886 35.238 14.4881C35.9896 15.6877 36.3654 16.9763 36.3654 18.354C36.3654 19.0191 36.2927 19.6782 36.1472 20.3314C36.0017 20.9847 35.8017 21.6141 35.5471 22.2198C35.2926 22.8255 34.9652 23.3956 34.5652 23.9301C34.1651 24.4645 33.7287 24.9277 33.2559 25.3197C32.7831 25.7116 32.2437 26.0204 31.6375 26.246C31.0314 26.4717 30.401 26.5845 29.7464 26.5845H29.419C29.2736 26.5845 29.1281 26.6142 28.9826 26.6736C28.8371 26.733 28.7099 26.8161 28.6008 26.923C28.4916 27.0299 28.4068 27.1487 28.3462 27.2793C28.2856 27.4099 28.2553 27.5584 28.2553 27.7247C28.2553 28.0335 28.3704 28.3007 28.6008 28.5264C28.8311 28.752 29.1038 28.8648 29.419 28.8648C30.8253 28.8173 32.1224 28.4788 33.3105 27.8494C34.4985 27.2199 35.4683 26.4004 36.22 25.3909C36.9716 24.3814 37.5595 23.2709 37.9838 22.0595C38.4081 20.8481 38.6203 19.6129 38.6203 18.354C38.6203 15.7649 37.705 13.5202 35.8745 11.6199C34.0439 9.71963 31.7951 8.62697 29.1281 8.34193ZM24.873 26.6914C24.7275 26.5251 24.5396 26.442 24.3093 26.442C24.0789 26.442 23.8789 26.5251 23.7092 26.6914L21.1634 29.4706V17.9977C21.1634 17.9264 21.1513 17.8492 21.127 17.7661C21.1028 17.6829 21.0785 17.6117 21.0543 17.5523C21.03 17.4929 20.9937 17.4276 20.9452 17.3563C20.8967 17.2851 20.8482 17.2257 20.7997 17.1782C20.7512 17.1307 20.6967 17.0891 20.636 17.0535C20.5754 17.0178 20.5088 16.9822 20.436 16.9466C20.3633 16.911 20.2905 16.8872 20.2178 16.8753C20.1451 16.8635 20.0723 16.8575 19.9996 16.8575C19.6602 16.8575 19.3813 16.9703 19.1631 17.196C18.9449 17.4217 18.8358 17.6889 18.8358 17.9977V29.4706L16.3627 26.7627C16.193 26.5964 15.993 26.5073 15.7627 26.4954C15.5323 26.4836 15.3323 26.5489 15.1626 26.6914L14.8716 26.8696C14.7019 27.0358 14.6171 27.2377 14.6171 27.4753C14.6171 27.7128 14.7019 27.9147 14.8716 28.081L19.0904 32.606V32.6416L19.3813 32.9267C19.551 33.0929 19.7511 33.1761 19.9814 33.1761C20.2117 33.1761 20.4118 33.0929 20.5815 32.9267L20.8724 32.6416V32.606L25.1639 28.0097C25.5276 27.6534 25.5276 27.2971 25.1639 26.9408L24.873 26.6914Z" fill="#9D3FE7"/>
<path d="M21.7223 25.8114V16.6416L18.274 16.6416V25.8114H13.1016L19.9981 34.302L26.8947 25.8114H21.7223Z" fill="#9D3FE7"/>
</svg>
