<svg width="36" height="36" viewBox="0 0 36 36" fill="none" xmlns="http://www.w3.org/2000/svg">
<path d="M18 36C27.9411 36 36 27.9411 36 18C36 8.05887 27.9411 0 18 0C8.05887 0 0 8.05887 0 18C0 27.9411 8.05887 36 18 36Z" fill="#9D3FE7"/>
<path d="M18 10.4099C14.895 10.4099 12.375 12.9299 12.375 16.0349C12.375 19.0799 14.76 21.5549 17.925 21.6449C17.97 21.6449 18.03 21.6449 18.06 21.6449C18.09 21.6449 18.135 21.6449 18.165 21.6449C18.18 21.6449 18.195 21.6449 18.195 21.6449C21.225 21.5399 23.61 19.0799 23.625 16.0349C23.625 12.9299 21.105 10.4099 18 10.4099Z" fill="white"/>
<path d="M28.1701 29.0401C25.5001 31.5001 21.9301 33.0151 18.0001 33.0151C14.0701 33.0151 10.5001 31.5001 7.83008 29.0401C8.19008 27.6751 9.16508 26.4301 10.5901 25.4701C14.6851 22.7401 21.3451 22.7401 25.4101 25.4701C26.8501 26.4301 27.8101 27.6751 28.1701 29.0401Z" fill="white"/>
</svg>
