<svg width="20" height="11" viewBox="0 0 20 11" fill="none" xmlns="http://www.w3.org/2000/svg">
<path fill-rule="evenodd" clip-rule="evenodd" d="M10.8824 10.9915C11.0894 10.963 11.2819 10.8693 11.432 10.7239C11.6 10.5499 11.6 10.2259 11.6 10.2259C11.6 10.2259 11.576 8.70434 12.296 8.48114C13.004 8.25914 13.904 9.94994 14.864 10.6003C15.596 11.0971 16.148 10.9903 16.148 10.9903L18.716 10.9555C18.716 10.9555 20.0624 10.8715 19.4264 9.82874C19.3784 9.74594 19.0664 9.05834 17.5304 7.64834C15.92 6.17834 16.136 6.41594 18.0704 3.86714C19.2464 2.31434 19.7264 1.36634 19.5704 0.963142C19.4384 0.583941 18.5624 0.677541 18.5624 0.677541L15.6812 0.701542C15.6812 0.701542 15.4652 0.677541 15.3092 0.773542C15.1532 0.867142 15.0572 1.08194 15.0572 1.08194C15.0572 1.08194 14.6012 2.29034 13.9892 3.31034C12.6908 5.46554 12.1748 5.58434 11.9708 5.44274C11.4872 5.13314 11.6108 4.19474 11.6108 3.52154C11.6108 1.43474 11.9348 0.557541 10.9868 0.333141C10.6748 0.261141 10.442 0.215541 9.63799 0.202341C8.60599 0.190341 7.73598 0.210741 7.24278 0.448341C6.91879 0.607941 6.66678 0.963141 6.81078 0.981141C7.00278 1.00514 7.43479 1.09634 7.66279 1.40594C7.96279 1.80554 7.95079 2.69834 7.95079 2.69834C7.95079 2.69834 8.11878 5.15834 7.55478 5.46554C7.15878 5.67194 6.63078 5.24354 5.47879 3.28754C4.89078 2.29154 4.44679 1.17914 4.44679 1.17914C4.44679 1.17914 4.36278 0.976341 4.20678 0.857541C4.02319 0.727941 3.75919 0.679941 3.75919 0.679941L1.01119 0.703941C1.01119 0.703941 0.603186 0.715941 0.460386 0.893541C0.328386 1.04714 0.448385 1.37954 0.448385 1.37954C0.448385 1.37954 2.59639 6.34634 5.03239 8.84714C7.26439 11.1391 9.79758 10.9915 9.79758 10.9915H10.8812H10.8824Z" fill="white"/>
</svg>
